<?xml version="1.0" encoding="utf-8"?>
<!-- Generator: Adobe Illustrator 17.0.0, SVG Export Plug-In . SVG Version: 6.00 Build 0)  -->
<!DOCTYPE svg PUBLIC "-//W3C//DTD SVG 1.1//EN" "http://www.w3.org/Graphics/SVG/1.1/DTD/svg11.dtd">
<svg version="1.1" id="Layer_3" xmlns="http://www.w3.org/2000/svg" xmlns:xlink="http://www.w3.org/1999/xlink" x="0px" y="0px"
	 width="595.28px" height="841.89px" viewBox="0 0 595.28 841.89" enable-background="new 0 0 595.28 841.89" xml:space="preserve">
<g id="XMLID_1_">
	<g>
		<path fill="#333333" d="M128.91,219.29c2.13,10.39,4.96,16.27,2.96,25.17c0.09-0.62,0.13-0.96,0.13-0.96l-0.21,0.45L128.91,219.29
			z"/>
		<path fill="#333333" d="M131.79,243.95l0.21-0.45c0,0-0.04,0.34-0.13,0.96c0,0.01,0,0.03-0.01,0.04L131.79,243.95z"/>
		<path fill="#333333" d="M131.86,244.5v0.02c-0.76,5.2-5.01,29.09-20.46,43.62l20.39-44.19L131.86,244.5z"/>
		<path fill="#333333" d="M128.91,219.29l2.88,24.66l-20.39,44.19L127,203C127.22,209.63,128,214.87,128.91,219.29z"/>
		<path fill="#333333" d="M127,203l1.91,16.29C128,214.87,127.22,209.63,127,203z"/>
		<path fill="#333333" d="M127,203l-15.6,85.14C108.5,268.5,92,258,127,203z"/>
	</g>
	<g>
		<path fill="none" stroke="#020202" stroke-miterlimit="10" d="M127,203c-35,55-18.5,65.5-15.6,85.14L127,203z"/>
		<path fill="none" stroke="#020202" stroke-miterlimit="10" d="M131.86,244.52c-0.76,5.2-5.01,29.09-20.46,43.62"/>
		<path fill="none" stroke="#020202" stroke-miterlimit="10" d="M127,203c0.22,6.63,1,11.87,1.91,16.29
			c2.13,10.39,4.96,16.27,2.96,25.17c0,0.01,0,0.03-0.01,0.04"/>
		<line fill="none" stroke="#020202" stroke-miterlimit="10" x1="131.86" y1="244.52" x2="131.86" y2="244.5"/>
	</g>
</g>
<g id="XMLID_2_">
	<g>
		<path fill="#333333" d="M476.268,215.864c-2.765,10.239-5.951,15.934-4.501,24.941c-0.052-0.624-0.071-0.966-0.071-0.966
			l0.182,0.462L476.268,215.864z"/>
		<path fill="#333333" d="M471.878,240.3l-0.182-0.462c0,0,0.019,0.342,0.071,0.966c-0.001,0.01-0.002,0.03,0.008,0.041
			L471.878,240.3z"/>
		<path fill="#333333" d="M471.774,240.845l-0.001,0.02c0.439,5.237,3.213,29.343,17.741,44.795l-17.636-45.36L471.774,240.845z"/>
		<path fill="#333333" d="M476.268,215.864l-4.39,24.436l17.636,45.36l-10.338-85.938
			C478.549,206.326,477.448,211.508,476.268,215.864z"/>
		<path fill="#333333" d="M479.176,199.722l-2.908,16.142C477.448,211.508,478.549,206.326,479.176,199.722z"/>
		<path fill="#333333" d="M479.176,199.722l10.338,85.938C493.615,266.235,510.729,256.769,479.176,199.722z"/>
	</g>
	<g>
		<path fill="none" stroke="#020202" stroke-miterlimit="10" d="M479.176,199.722c31.554,57.047,14.44,66.513,10.338,85.938
			L479.176,199.722z"/>
		<path fill="none" stroke="#020202" stroke-miterlimit="10" d="M471.773,240.865c0.439,5.237,3.213,29.343,17.741,44.795"/>
		<path fill="none" stroke="#020202" stroke-miterlimit="10" d="M479.176,199.722c-0.627,6.604-1.728,11.786-2.908,16.142
			c-2.765,10.239-5.951,15.934-4.501,24.941c-0.001,0.01-0.002,0.03,0.008,0.041"/>
		<line fill="none" stroke="#020202" stroke-miterlimit="10" x1="471.773" y1="240.865" x2="471.774" y2="240.845"/>
	</g>
</g>
<g>
	<path fill="#333333" d="M76.666,288.14c0.667,11.193,2.068,18.99,15.368,30.092l1.411-2.544c13.222-35.354-0.222-86.354,0-76.354
		C93.666,249.333,75.999,276.947,76.666,288.14z"/>
	<path fill="#333333" d="M147.477,631.886l-4.166-3.683C121,621.335,132.852,607.141,41,603.002
		C53.7,614.526,91.315,669.669,147.477,631.886z"/>
	<path fill="#333333" d="M326.3,561.668c-17.754-24.37-32.183-7.203-37.633-6.168c4.677,3.313,12.538,1.94,17.709,2.029
		c0.269,0.004,0.533,0.007,0.791,0.008c0.512,0.002,0.999-0.002,1.457-0.011c2.459-0.048,3.918,0.557,3.918,0.557
		s2.2,1.008,3.119,1.921c49.131,48.823-92.947,128.232-112.721-122.217l1.669-0.313c0.701-0.131,70.4-13.672,100.289-63.896
		c15.87-26.668,17.899-58.821,6.03-95.566l-0.49-1.514l-1.482,0.578c-0.072,0.028-7.27,2.797-15.138,2.797
		c-7.951,0.001-13.685-2.746-17.042-8.163l-0.332-0.535l-0.614-0.138c-0.132-0.03-3.294-0.728-8.421-0.728
		c-5.002,0-12.684,0.691-21.294,3.913c-7.792-8.835-17.76-13.496-28.894-13.496c-16.862,0-34.114,10.875-43.953,27.706
		c-11.147,19.069-10.81,41.961,0.926,62.805l2.881,5.116L177,350.481c-0.005-0.366-0.226-36.786,19.923-57.189
		c9.025-9.14,20.858-13.773,35.168-13.773c0.943,0,1.907,0.02,2.878,0.061c2.972,33.304-21.065,70.816-48.842,114.163
		c-8.962,13.986-18.246,28.483-27.167,43.606c-13.667,2.635-28.764,8.934-41.791,18.837c0.001-0.041,0-0.081,0.001-0.122
		c-4.643,3.46-9.074,7.531-13.11,12.229c-5.755,6.49-10.612,13.94-14.065,22.353c-4.68,11.399-6.473,24.879-4.585,39.805
		c-0.002-0.004-0.003-0.009-0.005-0.014c1.102,12.909,4.682,23.56,10.219,34.766c4.411,9.799,10.354,20.288,18.152,31.438
		c-0.051-0.042-0.103-0.083-0.154-0.124c0.447,0.707,0.962,1.368,1.494,2.023c2.91,4.078,6.065,8.242,9.488,12.494l1.154-3.481
		c0-0.001,0.509-1.533,1.211-4.411l0.067-0.298c0.385-3.133,0.826-6.245,1.308-9.341c0.009-1.233,0.261-2.475,0.6-3.713
		c1.113-6.608,2.43-13.121,3.916-19.516c2.684-10.697,5.683-21.39,8.827-31.215c-0.004-0.047-0.009-0.094-0.014-0.14
		c18.663-56.78,46.831-98.829,50.937-104.79C224.089,691.684,356.801,617.632,326.3,561.668z M116.147,533.533
		c-0.218,0.777-0.427,1.561-0.638,2.342c-0.084,0.32-0.172,0.638-0.255,0.959c-1.455,5.484-2.729,11.059-3.777,16.842
		c-1.059,5.537-1.948,11.153-2.648,16.854l-0.165-0.311c0.013,0.108,0.031,0.22,0.043,0.328
		c-6.155-11.601-10.588-22.612-13.289-32.999c0.026-0.024,0.056-0.05,0.083-0.074c-3.495-13.648-4.535-28.293-0.515-42.45
		c0.785-2.638,1.73-5.214,2.855-7.719c1.926-4.286,4.281-8.211,6.941-11.812c3.942-4.908,8.958-9.938,12.318-12.956v-0.003
		c13.067-10.932,28.53-17.252,39.186-20.617C140,470.009,125.195,500.287,116.147,533.533z M201.727,419.054
		c0.379-0.616,0.758-1.238,1.137-1.85c7.529-12.15,12.51-19.321,12.569-19.406c2.206-3.249,53.038-78.903,31.855-118.345
		c3.557-0.811,7.047-1.222,10.401-1.222c21.915,0,38.577,18.23,41.462,45.364c4.4,41.395-23.469,92.959-95.06,108.355l-1.15,0.248
		l-0.118,4.124C202.395,430.732,202.03,424.974,201.727,419.054z"/>
	<path fill="#333333" d="M108.498,573.392l-0.121-0.273l0.163-0.089C108.527,573.151,108.512,573.271,108.498,573.392z"/>
	<path fill="#333333" d="M115.101,600.573c-1.415-2.039-2.707-4.095-3.906-6.079c-25.951-22.222-43.358-55.956-89.027-58.16
		C35.115,556.916,53.899,623.857,115.101,600.573z"/>
	<path fill="#333333" d="M15.833,467c16.921,30.523,18.988,80.192,64.696,70.793c5.574,13.599,12.278,26.575,19.992,38.804
		c-9.517-16.478-16.19-33.451-17.153-52.263c-7.13-18.603-11.249-34.253-13.782-53.015c22.841-18.811,21.805-20.762,31.313-34.985
		c8.286-12.397,8.231-66.667,8.231-66.667s-39.122,29.445-40.727,91.308c-0.568-6.046-0.934-12.155-1.077-18.326
		c-0.552-23.878,2.185-47.034,7.769-69.001c0.047-0.001,17.432-0.335,36.805-15.981c8.536-6.667,31.267-39.435,31.267-39.435
		s-15-1.565-37.682,12.435c-21.241,13.111-28.548,36.279-29.662,40.191c5.066-19.017,12.27-37.119,21.339-53.99
		c37.994,7.868,47.004-14.202,71.17-32.202c-42.035-9.849-68.284,27.187-68.874,28.03c8.053-14.313,17.466-27.696,28.049-39.961
		c34.232,19.368,56.661-15.736,81.659-25.068c-12.895,1.258-29.914-15.302-73.552,16.13c12.073-12.656,25.469-23.939,39.961-33.601
		c57.336,4.166,45.873-26.049,72.924-43.863c-57.616-2.673-71.883,35.193-74.31,43.482c-0.127,0.082-0.252,0.166-0.379,0.248
		c-0.013-0.001-0.025-0.002-0.038-0.003v0.028c-7.549,4.924-14.819,10.262-21.768,16C173.96,217.847,185.25,183.5,185.25,183.5
		s-60.084,15.167-44.508,72.473l0.037-0.012c-33.276,31.104-58.075,71.721-70.453,117.673c-0.003-0.006-0.003-0.01-0.006-0.016
		c-3.242-6.397-2.82-14.618,3.514-46.22C77.834,307.13,63.167,282,63.167,282S44.833,315,46.5,339
		c1.41,20.31,19.81,35.613,23.47,35.963c-3.744,14.207-6.299,28.917-7.554,44.008l-0.004-0.061
		c-5.578-58.576-28.578-66.242-32.912-85.243c-4.61,13.503-30.726,71.456,32.024,104.475c-0.015,1.589-0.019,3.18-0.005,4.775
		c0.068,7.686,0.483,15.282,1.208,22.783c-11.307-32.722-8.512-29.652-55.53-54.7c0.161,0.96,11.677,63.302,57.424,69.671
		c1.711,10.957,4.099,21.676,7.142,32.1C58.187,493.894,32.88,469.604,15.833,467z M68.452,461.457l1.079,9.425
		C69.115,467.76,68.755,464.617,68.452,461.457z"/>
	<path fill="#333333" d="M483.832,433.992c0.06-0.554,0.063-1.472,0.203-2.318c-1.979-1.227-4.359-2.091-5.632-2.597
		c-0.145,0.079-0.289,0.159-0.433,0.239c1.058,1.941,3.552,7.027,4.822,10.673C483.279,438.007,483.619,435.986,483.832,433.992z"/>
	<path fill="#333333" d="M477.014,510.821c-0.443,2.034-0.06,3.895,1.082,5.239c1.057,1.244,2.682,1.93,4.578,1.93
		c2.228,0,4.622-0.947,6.568-2.6c3.754-3.188,4.863-8.071,2.475-10.889c-1.057-1.244-2.683-1.93-4.578-1.93
		c-1.783,0-4.62,0.946-6.57,2.6C478.731,506.731,477.469,508.737,477.014,510.821z"/>
	<path fill="#333333" d="M351.657,208.47"/>
</g>
<path fill="#333333" d="M143.167,538.168"/>
<g>
	<path fill="#333333" d="M140.044,550.146c-0.207,1.102-0.415,2.188-0.675,3.216c-0.872,3.442-1.837,6.866-2.806,10.288
		c-0.124,0.555-0.25,1.108-0.372,1.664c-1.353,6.185-3.034,12.45-3.967,18.761c8.923-13.728,10.507-26.628,9.808-39.916
		C141.315,546.137,140.654,548.134,140.044,550.146z"/>
</g>
<g>
	<path fill="#333333" d="M499.084,429.566c-0.031-0.05-0.056-0.109-0.066-0.184c-0.045-0.314-0.115-0.614-0.197-0.908
		c-0.009-0.021-0.018-0.042-0.025-0.064c-1.447-1.303-6.522-6.283-6.318-11.934c-14.736,23.253,3.097,58.754-64.342,96.578
		c11.667-33.333,15.77-45.047,37.438-78.992c5.569-9.46,32.271-48.656,25.189-54.979c-3.482-3.552-12.98-4.047-10.968-10.646
		c-13.388,3.5-47.484,51.329-48.388,48.039c-1.166-4.248,13.166-19.081,12.833-29.081s-6.083,0.167-11.833-16.667
		c-52.253,47.969-72.75,101.084-81.75,113.584c19-55,42.5-83.5,43.75-95.25c0,0-6.5-2.5-8.5-12.5c0,0-30.75,52.19-44,95.25
		c-1.483-0.724-49.533,57.75-55.333,50.25c-1.8-10,27.634-87.5,56.233-145.5c27.868-56.516,19.554-36.436,35.1-81
		c0,0-10.75,3.25-19.5-17.026c3,54.86-63.167,122.86-87,252.026c0,0,12,19.5,69.5-54c0,0-15,62-2.5,56.344
		c0.5-31.344,50.26-109.525,76.834-128.676c26.582-19.157-38.834,51.935-44.334,124.332c23.43-15.5,23.375-84.752,91.125-132.625
		c12.125-5-49.291,88.793-42.291,122.126c0.339,1.616,26.678-8.221,49.016-29.983c0.532-0.51,1.009-0.969,1.415-1.368
		c-0.006-0.005-0.011-0.009-0.016-0.015c5.053-5.076,9.855-10.781,14.07-17.105c0.771-1.363,1.682-2.667,2.474-3.978
		c1.601-2.652,2.873-5.461,4.25-8.232c0.099-0.199,0.195-0.398,0.295-0.598c0-0.053,0.002-0.107,0.023-0.167
		c0.781-2.17,1.688-4.287,2.623-6.394c-0.016-0.07-0.018-0.147,0.002-0.231c0.512-2.101,1.471-4.04,2.234-6.054
		c0.089-0.364,0.204-0.717,0.395-1.006c0.535-1.953,1.025-3.935,1.431-5.964c-0.027-0.08-0.041-0.167-0.02-0.268
		c0.08-0.375,0.176-0.762,0.275-1.155C498.565,433.588,498.861,431.597,499.084,429.566z"/>
	<path fill="#333333" d="M485.583,600.597c61.186,23.26,79.962-43.683,92.907-64.263c-44.107,2.129-61.846,33.677-86.386,55.852
		c13.066-17.635,23.887-37.14,32.052-58.046c45.276,13.206,50.999-36.398,70.201-65.675c-19.201,1.487-50.689,29.183-63.882,47.511
		c3.277-10.739,5.859-21.795,7.713-33.106c47.681-7.347,55.335-72.832,55.434-73.82c-48.836,30.334-41.958,24.143-54.192,66.906
		l-0.365,1.157c1.765-12.547,2.639-25.39,2.522-38.466c-0.003-0.319-0.014-0.637-0.018-0.956
		c64.103-32.921,37.724-91.445,33.088-105.023c-4.334,19.001-27.334,26.667-32.912,85.243l-0.577,8.285
		c-1.015-17.959-3.858-35.4-8.35-52.126c6.063-3.56,20.113-17.418,21.339-35.069c1.666-24-16.666-57-16.666-57
		s-14.668,25.129-10.668,45.398c5.231,26.098,6.427,36.246,4.859,42.593c-5.362-18.719-12.79-36.508-22.008-53.091
		c11.853-10.406,13.176-18.02,13.816-28.76c0.666-11.193-17-38.807-16.779-48.807c0.206-9.248-11.273,33.675-2.544,68.146
		c-12.954-21.088-28.877-40.018-47.164-56.148c19.579-55.138-38.393-75.221-38.393-75.221s8.75,37.113,29.341,67.63
		c-7.05-5.634-14.406-10.874-22.043-15.682c-3.695-10.845-19.518-44.242-73.751-41.726c27.244,17.941,15.419,48.462,74.156,43.771
		c0.097,0.064,0.193,0.128,0.29,0.193c0.196,0.71,0.28,1.105,0.28,1.105v-0.919c15.733,10.516,30.201,22.944,43.091,36.987
		c-47.311-36.35-65.113-18.499-78.483-19.803c25,9.333,47.43,44.442,81.666,25.064v-1.724c10.237,11.603,19.419,24.248,27.388,37.77
		c-8.164-9.451-31.813-32.062-65.749-24.11c23.998,17.874,33.064,39.747,70.392,32.347c8.469,15.714,15.332,32.511,20.354,50.159
		c-2.71-7.047-11.452-25.962-30.611-36.651c-23.275-12.987-38.192-10.763-38.192-10.763s24.153,31.735,32.974,38.02
		c18.586,13.701,34.876,14.326,37.186,14.344c4.966,18.909,7.834,38.746,8.307,59.232c0.216,9.341-0.087,18.566-0.851,27.658
		c-5.251-61.118-45.558-88.163-45.558-88.163s0.09,1.658,0.281,4.434c1.644,0.668,3.43,1.358,4.227,3.046
		c0.871,1.843,1.237,3.328,1.03,5.38c-0.218,2.157-0.784,4.492-1.555,6.52c-0.648,1.704-0.951,3.612-1.692,5.271
		c-0.035,0.18-0.078,0.357-0.124,0.533c0.729,6.383,1.668,13.181,2.841,19.479c0.016,0.043,0.026,0.086,0.024,0.136
		c0.009,0.047,0.019,0.093,0.027,0.14c0.127,0.553,0.274,1.098,0.443,1.634c0.033,0.077,0.069,0.156,0.088,0.217
		c0.02,0.065,0.035,0.131,0.055,0.196c0.293,0.878,0.633,1.739,1,2.59c1.648,2.364,4.069,4.188,5.087,6.986
		c0.51,1.4,0.579,2.936,0.405,4.48c0.017,1.676-0.123,3.377-0.322,5.037c0.009,0.013,0.018,0.028,0.026,0.04
		c10.18,13.571,9.366,15.663,32.584,32.801c-3.162,24.959-9.944,48.75-19.762,70.783l0.38-2.779
		c10.287-40.586-3.123-72.377-15.689-90.57c-0.339,0.587-0.69,1.166-0.969,1.798c-0.559,1.27-0.882,2.633-1.5,3.875
		c-1.342,2.697-2.661,5.404-4.054,8.075c-1.942,3.727-3.815,7.817-7.042,10.62c-0.26,10.103-0.565,19.713,1.02,29.108
		c4.091-0.495,8.324,1.38,9.082,5.824c0.617,3.619-1.725,7.45-4.116,10.179c4.126,8.639,10.886,17.251,21.912,26.076
		c-7.701,16.845-17.198,32.631-28.23,47.089c10.552-27.776,8.269-52.806,2.625-71.374c-2.506,0.849-5.392,1.63-7.745,0.358
		c-1.97-1.064-3.888-2.969-4.094-5.212c-0.159-0.495-0.264-0.998-0.288-1.501c-0.099-1.062,0.44-2.571,0.697-3.185
		c1.105-2.645,2.696-5.089,5.056-6.655c-2.962-6.017-5.96-10.59-8.226-13.403c-1.153,1.292-2.37,2.526-3.605,3.746
		c0.09,40.967-24.156,67.284,8.018,106.641c-11.993,14.199-25.538,26.942-40.378,37.92c5.122-23.349,39-36.704,9.863-111.35
		c-22.9,60.964-28.946,99.14-12.113,112.999c-17.061,12.309-35.774,22.311-55.742,29.567c9.336-22.114,48.602-24.193,36.17-101.828
		c-48.13,56.466-44.749,72.413-36.931,102.098c-16.557,5.951-33.966,10.016-52.004,11.945c8.709-3.916,41.221-6.474,22.935-75.16
		c-45.599,48.354-37.815,62.958-26.55,75.514c-1.214,0.11-2.427,0.227-3.647,0.318c0,0-3.962-0.099-17.657,4.373
		c-12.471-4.472-17.34-4.512-17.34-4.512c-1.464-0.118-2.921-0.261-4.378-0.407c11.155-12.506,18.57-27.225-26.753-75.286
		c-17.639,66.254,11.987,70.979,21.924,74.745c-17.579-2.148-34.581-6.338-50.779-12.347c7.661-29.165,10.541-45.336-37.145-101.281
		c-12.223,76.325,25.522,79.622,35.67,100.726c-19.146-7.255-37.155-17.039-53.635-28.997c16.08-14.274,9.921-52.244-12.702-112.467
		c-28.631,73.351,3.586,87.518,9.572,110.143c-13.055-9.807-25.081-21.016-35.946-33.373c-0.374,2.202-0.487,4.391-1.354,6.497
		c-0.271,0.66-0.565,1.309-0.865,1.954c16.368,17.94,35.498,33.788,56.318,46.046C133.873,645.386,76.5,659.653,76.5,659.653
		l1.334,0.667c66.135,50.726,100.11,24.457,116.82,3.094c14.404,7.444,29.626,13.428,45.486,17.775
		c-39.82,0.07-80.64,19.254-80.64,19.254l1.158,0.298c60.021,28.184,82.758,2.747,92.64-16.342
		c9.352,1.984,18.897,3.409,28.606,4.232c0,0,1.049,0.01,2.926,0.169c0.123,0.011,4.374,0.521,4.504,0.534
		c-10.094,3.89-22.305,11.668-31.383,20.522l6.55,5.812c13.602-12.048,25.54-20.839,36.808-23.844
		c11.11,3.045,21.897,12.215,35.026,23.844l5.833-6.167c-8.719-8.504-19.168-15.532-28.888-19.372c0-0.962,4.833-1.231,5.102-1.247
		v0.031c0.313-0.022,0.624-0.055,0.936-0.079c0.123-0.004,0.208-0.006,0.208-0.006l-0.002-0.011
		c9.54-0.727,18.921-2.037,28.115-3.884c10.028,19.023,32.899,43.729,92.361,15.808l1.157-0.298c0,0-38.979-18.317-77.913-19.219
		c16.273-4.459,31.859-10.643,46.574-18.351c16.443,21.463,50.647,49.895,117.928-2.468l1.329-0.677c0,0-62.935-15.18-113.546,0.056
		c13.745-7.689,26.684-16.716,38.645-26.928c55.334,35.815,92.397-18.434,104.983-29.855c-85.179,3.838-81.179,16.322-97.939,23.594
		C469.934,618.551,478.081,609.863,485.583,600.597z"/>
</g>
<g>
	<path fill="#333333" d="M108.284,566.403c0.069,0.119,0.156,0.226,0.219,0.349c0.289-2.617,0.637-5.188,1.017-7.736
		c2.43-25.131,14.625-54.619,18.869-64.274C118.352,508.569,105.688,534.152,108.284,566.403z"/>
</g>
<g>
	<path fill="#333333" d="M117.136,465.704c-4.533,3.561-11.328,10.088-16.238,20.088c-6.945,14.146-8.057,31.018-3.425,49.764
		C120.56,512.712,117.55,490.877,117.136,465.704z"/>
</g>
<g>
	<path fill="#333333" stroke="#FFFFFF" stroke-width="2" stroke-miterlimit="10" d="M109.115,568.298"/>
</g>
<g>
	<path fill="#333333" d="M84.828,499.185c7.325-26.243,28.736-43.099,32.441-45.855c0.318-7.224,1.169-14.742,3.166-22.662
		C121.448,426.146,89.067,453.032,84.828,499.185z"/>
</g>
<g>
	<path fill="#333333" stroke="#FFFFFF" stroke-width="2" stroke-miterlimit="10" d="M83.368,524.334"/>
</g>
<g>
	<path fill="#333333" stroke="#FFFFFF" stroke-width="2" stroke-miterlimit="10" d="M83.368,525.001"/>
</g>
<path fill="#333333" d="M83.368,522.25c0,0-2.368,27.25,19.047,59"/>
<path fill="#333333" d="M353.738,209.73"/>
</svg>
