<?xml version="1.0" encoding="utf-8"?>
<!-- Generator: Adobe Illustrator 17.0.0, SVG Export Plug-In . SVG Version: 6.00 Build 0)  -->
<!DOCTYPE svg PUBLIC "-//W3C//DTD SVG 1.1//EN" "http://www.w3.org/Graphics/SVG/1.1/DTD/svg11.dtd">
<svg version="1.1" id="Layer_1" xmlns="http://www.w3.org/2000/svg" xmlns:xlink="http://www.w3.org/1999/xlink" x="0px" y="0px"
	 width="66.972px" height="32px" viewBox="0 0 66.972 32" enable-background="new 0 0 66.972 32" xml:space="preserve">
<g>
	<path fill="#FFFFFF" d="M16,0C7.164,0,0,7.164,0,16c0,8.837,7.163,16,16,16s16-7.162,16-16C32,7.164,24.837,0,16,0z M16,29.5
		C8.544,29.5,2.5,23.457,2.5,16C2.5,8.544,8.544,2.5,16,2.5S29.5,8.544,29.5,16C29.5,23.457,23.457,29.5,16,29.5z"/>
	<path fill="#FFFFFF" d="M18.708,9.293c-0.391-0.391-1.023-0.391-1.414,0l-6,6c-0.391,0.391-0.391,1.023,0,1.414l6,6
		C17.489,22.902,17.745,23,18,23s0.512-0.098,0.707-0.293c0.391-0.391,0.391-1.023,0-1.414L13.415,16l5.293-5.293
		C19.098,10.317,19.098,9.684,18.708,9.293z"/>
</g>
<g>
	<path fill="#FFFFFF" d="M50.972,32c8.837,0,16-7.163,16-16s-7.163-16-16-16s-16,7.163-16,16S42.135,32,50.972,32z M50.972,2.5
		c7.456,0,13.5,6.044,13.5,13.5s-6.044,13.5-13.5,13.5s-13.5-6.044-13.5-13.5S43.516,2.5,50.972,2.5z"/>
	<path fill="#FFFFFF" d="M48.265,22.707c0.391,0.391,1.023,0.391,1.414,0l6-6c0.391-0.391,0.391-1.023,0-1.414l-6-6
		C49.484,9.098,49.228,9,48.972,9s-0.512,0.098-0.707,0.293c-0.391,0.391-0.391,1.023,0,1.414L53.558,16l-5.293,5.293
		C47.875,21.684,47.875,22.316,48.265,22.707z"/>
</g>
</svg>
