<?xml version="1.0" standalone="no"?>
<!DOCTYPE svg PUBLIC "-//W3C//DTD SVG 1.1//EN" "http://www.w3.org/Graphics/SVG/1.1/DTD/svg11.dtd" >
<svg xmlns="http://www.w3.org/2000/svg">
<metadata></metadata>
<defs>
<font id="hyperegular" horiz-adv-x="993" >
<font-face units-per-em="2048" ascent="1536" descent="-512" />
<missing-glyph horiz-adv-x="448" />
<glyph horiz-adv-x="0" />
<glyph horiz-adv-x="0" />
<glyph unicode="&#xd;" horiz-adv-x="612" />
<glyph unicode=" "  horiz-adv-x="448" />
<glyph unicode="&#x09;" horiz-adv-x="448" />
<glyph unicode="&#xa0;" horiz-adv-x="448" />
<glyph unicode="!" horiz-adv-x="421" d="M143 0v160h142v-160h-142zM164 362v1080h94v-1080h-94z" />
<glyph unicode="&#x22;" horiz-adv-x="421" d="M76 1092v350h98v-350h-98zM246 1092v350h98v-350h-98z" />
<glyph unicode="$" horiz-adv-x="833" d="M74 1128q0 76 26.5 133.5t79.5 106.5q74 66 189 84v137h82v-133q49 0 91 -11t79 -34q43 -27 65.5 -53.5t30.5 -48.5l-88 -41q-12 35 -56.5 63.5t-121.5 30.5v-551q43 -29 92 -64.5t92 -82.5q53 -61 80.5 -145.5t27.5 -160.5q0 -164 -79 -258q-76 -96 -213 -114v-131h-82 v131q-98 6 -172 51t-109 123l84 41q47 -106 197 -117v664q-6 4 -14.5 9t-18.5 11q-41 25 -87 53.5t-85 68.5t-64.5 97t-25.5 141zM168 1128q0 -59 17.5 -100t45 -71.5t64.5 -54t74 -46.5v496q-88 -16 -144.5 -74t-56.5 -150zM451 86q63 8 102 38t60.5 69.5t28.5 84t7 80.5 q0 55 -17.5 104.5t-46 91.5t-63.5 77t-71 61v-606z" />
<glyph unicode="," horiz-adv-x="380" d="M127 166h111v-352h-111v352z" />
<glyph unicode="-" d="M217 782v99h555v-99h-555z" />
<glyph unicode="." horiz-adv-x="376" d="M121 0v160h141v-160h-141z" />
<glyph unicode="0" horiz-adv-x="968" d="M59 731q0 168 28 302t82 228.5t134 144.5t184 50q102 0 179 -50t129.5 -144.5t78 -228.5t25.5 -302q0 -115 -16.5 -246t-61.5 -241.5t-126 -183t-212 -72.5q-86 0 -149.5 33.5t-110.5 91t-78.5 132t-50 157.5t-27 168t-8.5 161zM154 731q0 -92 13 -204.5t50 -212 t100.5 -166t165.5 -66.5q80 0 140.5 46t101.5 131t61.5 205t20.5 267q0 115 -14.5 227.5t-50 201.5t-97.5 144.5t-158 55.5q-98 0 -162.5 -55.5t-102.5 -144.5t-53 -201.5t-15 -227.5z" />
<glyph unicode="1" horiz-adv-x="649" d="M43 829l399 619h103v-1448h-96v1296l-293 -467h-113z" />
<glyph unicode="2" horiz-adv-x="782" d="M63 1313q43 70 111 106.5t145 36.5q25 0 72 -3t98.5 -24.5t99.5 -67.5t77 -132q23 -72 22.5 -147.5t-21 -148.5t-60.5 -140.5t-95 -118.5l-20.5 -20.5t-22.5 -20.5q-49 -43 -99.5 -91t-91 -111.5t-69.5 -144.5t-33 -190h537v-96h-635v47q0 242 110 420q49 76 106.5 132 t111.5 106q10 10 21 19t22 19q45 43 77.5 98.5t49 115t17.5 122t-18 119.5q-16 55 -44.5 87t-62.5 49.5t-73 21.5t-76 4q-53 0 -100 -25.5t-78 -72.5z" />
<glyph unicode="3" horiz-adv-x="788" d="M68 119l73 65q51 -57 109.5 -78.5t91.5 -21.5q20 0 56 5t76 25.5t79 62.5t68 114q25 74 9 147.5t-46.5 135t-63.5 103.5t-41 50h-157v100h157q29 39 55.5 80t44 86t19.5 95.5t-16 107.5q-18 51 -46 84t-60 50.5t-67.5 23.5t-68.5 6q-35 0 -91 -21.5t-108 -78.5l-73 65 q59 63 132.5 97t139.5 34q47 0 84 -8t78 -25q125 -63 168 -194q29 -74 25.5 -148.5t-27.5 -148.5q-12 -39 -40 -77t-59 -73q41 -43 77 -95t54 -109q59 -168 9 -320q-25 -74 -67 -125t-91 -84t-103.5 -47t-105.5 -14q-61 0 -138 35.5t-136 95.5z" />
<glyph unicode="4" horiz-adv-x="813" d="M53 401l353 1045h102l-322 -950h291v331h94v-331h185v-95h-185v-403h-94v403h-424z" />
<glyph unicode="5" horiz-adv-x="890" d="M84 137l82 51q18 -29 37.5 -48t47.5 -31.5t67.5 -18.5t99.5 -6q139 0 216 96t77 275q0 111 -12.5 186.5t-41.5 126.5q-35 57 -84 84t-131 27q-74 0 -123 -22.5t-77 -49.5q-35 -31 -56 -70l-92 29v674h615v-94h-519v-457q41 33 101.5 58.5t150.5 25.5q207 0 297 -160 q35 -61 51.5 -148t16.5 -210q0 -109 -26.5 -195t-78 -146.5t-123 -93t-161.5 -32.5q-66 0 -115 7t-89 24.5t-70.5 46t-59.5 71.5z" />
<glyph unicode="6" horiz-adv-x="864" d="M53 479q0 57 7.5 139t22.5 171.5t37.5 177.5t51.5 159q23 51 60.5 108.5t92 107t127 82t164.5 32.5v-94q-94 0 -163.5 -39t-118.5 -103.5t-82 -149.5t-51 -175q90 84 225 84q199 0 293 -139q88 -121 88 -361q0 -113 -26.5 -203t-77 -154.5t-121 -99t-156.5 -34.5 q-201 0 -299 141q-74 119 -74 350zM145 479q0 -213 64.5 -304t216.5 -91q135 0 215 111q76 104 76 284q0 207 -72 307q-70 98 -219 99q-127 0 -205 -103q-39 -53 -57.5 -130t-18.5 -173z" />
<glyph unicode="7" horiz-adv-x="798" d="M66 1348v96h682l-568 -1444h-94l526 1348h-546z" />
<glyph unicode="8" horiz-adv-x="864" d="M55 420q0 201 99 328q23 23 43 41t43 32q-139 80 -140 291q0 152 88 250q43 45 103.5 69.5t132.5 24.5q158 0 244 -90t86 -254q0 -92 -39 -162.5t-105 -111.5q29 -16 55 -36.5t44 -45.5q96 -117 96 -336q0 -98 -27.5 -178t-81.5 -138q-106 -117 -272 -116 q-180 0 -281 116q-88 106 -88 316zM150 420q0 -170 69 -258q35 -39 84 -59.5t121 -20.5q135 0 210 91t75 247q0 360 -285 360q-61 0 -111.5 -25.5t-87.5 -72.5t-56 -113.5t-19 -148.5zM195 1112q0 -59 14 -104t39 -74q51 -53 172 -53q111 0 174 61.5t63 169.5q0 121 -55 186 q-63 64 -178 64q-106 0 -167.5 -66.5t-61.5 -183.5z" />
<glyph unicode="9" horiz-adv-x="860" d="M59 997q0 223 101.5 340t269.5 117q201 0 291 -141q18 -31 31.5 -62.5t22.5 -68.5t13.5 -82t4.5 -103q0 -43 -4.5 -121.5t-17.5 -173t-38.5 -194.5t-66.5 -186q-23 -53 -58 -111.5t-85 -108t-118.5 -82t-160.5 -32.5v96q92 0 159.5 49t115.5 126t80 171t52 184 q-88 -82 -221 -82q-189 1 -287 140q-23 31 -38 62.5t-25 70.5t-15.5 86t-5.5 106zM150 997q0 -102 16 -162.5t49 -111.5q35 -47 87 -72.5t128 -25.5q127 0 201 104q37 53 54 112.5t17 155.5q0 190 -72.5 275.5t-199.5 85.5q-139 0 -209 -111q-35 -53 -53 -107.5t-18 -142.5z " />
<glyph unicode=":" horiz-adv-x="380" d="M121 0v160h141v-160h-141zM121 723v160h141v-160h-141z" />
<glyph unicode=";" horiz-adv-x="380" d="M121 723v160h141v-160h-141zM135 166h111v-352h-111v352z" />
<glyph unicode="?" horiz-adv-x="735" d="M45 1313q45 68 112.5 105.5t145.5 37.5q25 0 71 -4t98 -25.5t99 -67.5t76 -132q41 -123 13.5 -258t-113.5 -244q-29 -33 -76 -75t-84 -95q-25 -35 -35 -90t-10 -103h-96q0 57 14 125t47 121q27 35 72 82t90 90q74 88 97.5 201t-9.5 217q-16 55 -44 87t-61.5 48.5 t-72.5 21.5t-76 5q-53 0 -100 -26.5t-76 -73.5zM225 0v160h142v-160h-142z" />
<glyph unicode="@" horiz-adv-x="1300" d="M96 729q0 166 39 301t110.5 229.5t176 145.5t237.5 51q131 0 232.5 -51t171.5 -145.5t105.5 -229.5t35.5 -301q0 -113 -11 -198t-36 -146q-31 -72 -65.5 -92.5t-63.5 -20.5h-13t-11 2q-31 6 -53.5 29t-41.5 53q-43 -59 -110.5 -75.5t-134.5 -16.5h-5q-117 0 -193.5 84 t-90.5 232q-10 96 14.5 183t79.5 152q39 43 85 64.5t95 26.5h21q53 0 119.5 -15.5t115.5 -62.5q61 -61 62 -160q0 -10 1 -39t2 -67.5t-1 -84t-8 -88.5q-2 -23 4 -44t15 -37.5t22.5 -27.5t25.5 -11h10t15 14q33 66 40 149.5t7 196.5t-22.5 227.5t-75 204.5t-136.5 147.5 t-207 57.5q-129 0 -217 -57.5t-141 -147.5t-76.5 -204.5t-23.5 -227.5q0 -147 29.5 -266t88.5 -205q59 -92 144.5 -135t189.5 -43q49 2 84 8t59.5 18.5t43 32t37.5 47.5l75 -57q-47 -70 -108.5 -102.5t-163.5 -40.5h-27q-139 0 -246.5 56t-183.5 167q-127 197 -127 520z M465 592q4 -41 16.5 -82t35 -74t56 -53.5t80.5 -20.5h4q92 0 130.5 21.5t54.5 58.5q12 29 17 73t7 91t1 89t-3 67v4q0 59 -33 94q-53 49 -167 49h-17q-63 0 -110 -59q-43 -47 -61.5 -114.5t-10.5 -143.5z" />
<glyph unicode="A" horiz-adv-x="952" d="M43 0l365 1434h135l366 -1434h-98l-125 518h-420l-129 -518h-94zM291 612h371l-187 701z" />
<glyph unicode="B" horiz-adv-x="808" d="M100 4v1428q37 2 72 6q29 2 56.5 4t39.5 2q66 0 143.5 -5t143.5 -40q141 -78 141 -271q0 -59 -13 -105t-34.5 -80t-48.5 -58.5t-53 -40.5q-12 -12 -33 -23q18 -6 34 -14.5t32 -18.5q31 -23 61.5 -52t55 -71t41 -96.5t16.5 -122.5q0 -260 -142 -372q-59 -43 -142 -61.5 t-202 -18.5q-23 0 -51.5 1t-54.5 3q-31 2 -62 6zM195 94q18 -2 36.5 -4t36.5 -2q104 0 172 14.5t115 49.5q104 82 104 294q0 172 -135 261q-47 37 -96 53t-115 16h-118v-682zM195 868h104q49 0 101.5 11.5t99.5 42.5q100 70 100 206q0 61 -17.5 104.5t-57.5 70t-103.5 38 t-153.5 11.5q-10 0 -30.5 -2t-42.5 -4v-478z" />
<glyph unicode="C" horiz-adv-x="833" d="M57 721q0 160 21.5 289t68.5 225q115 221 330 221q70 0 125 -10t92 -35q37 -23 54.5 -52.5t25.5 -51.5l-94 -33q-4 12 -11 27.5t-27.5 30t-59.5 23.5t-105 9q-78 0 -137 -43t-107 -131q-45 -84 -62 -203t-17 -266q0 -143 17 -263t62 -204q47 -88 106.5 -129t137.5 -41 q66 0 105 9t59.5 22.5t27.5 28t11 26.5l94 -31q-8 -23 -25.5 -52.5t-54.5 -51.5q-37 -25 -92 -36t-125 -11q-215 0 -323 221q-53 96 -75 225t-22 287z" />
<glyph unicode="D" horiz-adv-x="839" d="M102 4v1428l74 4q33 2 72 3t78 1q20 0 54 -3t73 -14.5t80.5 -35t78.5 -64.5q168 -174 168 -569q0 -430 -149 -623q-115 -139 -305 -139q-37 0 -77 1t-73 5q-37 2 -74 6zM195 92q27 -2 59.5 -5t71.5 -3q70 0 129 26.5t100 79.5q133 168 133 564q0 180 -38 305t-105 201 q-55 57 -116.5 72.5t-102.5 15.5t-73 -1t-58 -1v-1254z" />
<glyph unicode="E" horiz-adv-x="710" d="M102 2v1440h523v-94h-428v-469h364v-97h-364v-686h456v-94h-551z" />
<glyph unicode="F" horiz-adv-x="684" d="M102 2v1442h525v-96h-430v-469h366v-95h-366v-782h-95z" />
<glyph unicode="G" horiz-adv-x="905" d="M57 721q0 162 21.5 291t73.5 223q55 113 138 167t189 54q72 0 125 -10t90 -37q39 -23 54.5 -51.5t23.5 -57.5l-88 -28q-4 10 -11 25.5t-28.5 29.5t-60.5 24.5t-105 10.5q-80 0 -139 -44t-102 -126q-47 -86 -66.5 -205t-19.5 -266q0 -145 19 -263t67 -204q43 -90 102 -131 t139 -41q98 0 143.5 29.5t59.5 60.5q8 14 12 53t5 95.5t2 127t1 150.5h-157v94h256q1 -64 1 -124.5t-1 -116.5q-2 -96 -8.5 -185.5t-20.5 -124.5q-31 -78 -96.5 -115.5t-196.5 -37.5q-207 0 -327 223q-49 94 -72 224t-23 286z" />
<glyph unicode="H" horiz-adv-x="864" d="M104 2v1444h97v-565h465v565h96v-1444h-96v784h-465v-784h-97z" />
<glyph unicode="I" horiz-adv-x="299" d="M102 0v1444h95v-1444h-95z" />
<glyph unicode="J" horiz-adv-x="550" d="M37 217h94q0 -86 26.5 -110.5t73.5 -24.5q72 0 97.5 40t25.5 111v1211h95v-1211q0 -49 -9.5 -94t-34 -78.5t-66.5 -53t-108 -19.5q-113 0 -157 75q-37 51 -37 154z" />
<glyph unicode="K" horiz-adv-x="778" d="M104 -2v1446h97v-481l360 481h119l-455 -615l504 -831h-115l-413 686v-686h-97z" />
<glyph unicode="L" horiz-adv-x="700" d="M102 0v1448h97v-1352h458v-96h-555z" />
<glyph unicode="M" horiz-adv-x="1148" d="M104 0v1444h99l375 -983l368 983h101v-1444h-99v1182l-370 -992l-377 996v-1186h-97z" />
<glyph unicode="N" horiz-adv-x="964" d="M100 0v1444h107l557 -1227v1227h96v-1444h-102l-561 1227v-1227h-97z" />
<glyph unicode="O" horiz-adv-x="968" d="M39 731q0 168 30.5 302t89 228.5t141.5 144.5t187 50q102 0 182.5 -50t135.5 -144.5t85 -228.5t30 -302q0 -160 -27 -291t-82 -229q-59 -109 -139 -166t-189 -57t-194.5 57t-145.5 166q-51 98 -77.5 229t-26.5 291zM133 731q0 -147 24.5 -268t71.5 -209q92 -172 254 -172 q80 0 143.5 46t108.5 131t68.5 205t23.5 267q0 115 -17 227.5t-57 201.5t-105 144.5t-161 55.5q-98 0 -165.5 -55.5t-109.5 -144.5t-60.5 -201.5t-18.5 -227.5z" />
<glyph unicode="P" horiz-adv-x="802" d="M102 0v1440l74 8q33 4 71 6t72 2h7q23 0 64.5 -2t90.5 -12t100.5 -31.5t92.5 -62.5q84 -78 84 -213q0 -182 -105.5 -278.5t-316.5 -96.5q-47 0 -82 2t-57 6v-768h-95zM197 868q18 -2 52 -7t87 -5q68 0 118 12.5t91 34.5q59 35 89 90.5t30 141.5q0 90 -56 145 q-31 31 -71.5 47t-81.5 24.5t-76 9.5t-53 1h-7q-31 0 -63.5 -3t-58.5 -7v-484z" />
<glyph unicode="Q" horiz-adv-x="1054" d="M45 731q0 168 30.5 303t88 229.5t139.5 144.5t186 50q102 0 184.5 -50t138.5 -144.5t86 -229.5t30 -303q0 -160 -22.5 -290t-78.5 -228q-2 -6 -4 -8l-6 -6l199 -199h-135l-117 117q-111 -129 -277 -129q-217 0 -335 225q-53 96 -80 227t-27 291zM141 731 q0 -145 22.5 -267t72.5 -208q89 -172 251 -172q59 0 112.5 26.5t96.5 75.5l-176 174l68 70l164 -164q43 84 61 202t18 263q0 115 -16 227.5t-56 202.5t-105.5 145.5t-164.5 55.5q-96 0 -162.5 -55.5t-107.5 -145.5t-59.5 -202.5t-18.5 -227.5z" />
<glyph unicode="R" horiz-adv-x="870" d="M104 0v1442l74 8q33 4 71 6t73 2h8q23 0 63.5 -2t89.5 -12t100.5 -31.5t92.5 -62.5q84 -78 84 -213q0 -182 -106.5 -278.5t-317.5 -96.5h-33.5t-28.5 4l551 -766h-118l-508 705v-705h-95zM199 870q18 -4 51 -9t86 -5q70 0 120 13.5t91 35.5q119 66 119 232q0 86 -56 145 q-31 31 -71.5 47.5t-80.5 24.5t-75 9t-53 1h-8q-31 0 -64 -4t-59 -6v-484z" />
<glyph unicode="S" horiz-adv-x="778" d="M51 1130q0 141 105 234q49 47 117.5 69.5t140.5 22.5q111 0 182 -45q45 -23 65.5 -53.5t30.5 -50.5l-86 -41q-14 37 -60 65.5t-132 28.5q-117 0 -192 -62.5t-75 -167.5q0 -63 18.5 -106t48.5 -73.5t69 -54.5t79 -46q10 -8 22.5 -16.5t27.5 -14.5l2 -4q47 -29 98 -63.5 t94 -87.5q57 -61 85 -144.5t28 -163.5q0 -78 -19.5 -143.5t-60.5 -112.5q-94 -112 -266 -112q-229 0 -312 176l91 41q51 -121 221 -121q82 0 131 28.5t75.5 69.5t36 89t9.5 85q0 70 -25 128.5t-63.5 105.5t-84.5 83t-90 62l-2 6q-12 4 -22 12.5t-25 14.5q-41 25 -87 52.5 t-85 69.5t-64.5 99.5t-25.5 140.5z" />
<glyph unicode="T" horiz-adv-x="714" d="M43 1348v94h619v-94h-263v-1348h-94v1348h-262z" />
<glyph unicode="U" horiz-adv-x="962" d="M104 522v924h97v-909q0 -78 7 -159t34.5 -146.5t84 -106.5t152.5 -41h4h2q98 0 153.5 41t84.5 106.5t36 146.5t7 159v909h94v-924q-2 -121 -18.5 -219t-58.5 -167.5t-113.5 -108.5t-184.5 -39h-2h-4q-113 0 -184.5 39t-112.5 108.5t-58.5 167.5t-19.5 219z" />
<glyph unicode="V" horiz-adv-x="845" d="M31 1448h96l297 -1247l293 1247h96l-342 -1448h-98z" />
<glyph unicode="W" horiz-adv-x="1400" d="M35 1444h94l264 -1241l258 1241h4h90h7l258 -1241l262 1241h94l-305 -1444h-100l-259 1241l-264 -1241h-96z" />
<glyph unicode="X" horiz-adv-x="802" d="M51 0l301 836l-219 608h98l172 -475l166 475h101l-219 -608l301 -836h-99l-250 696l-253 -696h-99z" />
<glyph unicode="Y" horiz-adv-x="751" d="M31 1444h106l238 -502l235 502h105l-293 -615v-831h-96v831z" />
<glyph unicode="Z" horiz-adv-x="802" d="M47 2l324 782h-117v97h154l194 469h-483v96h626l-231 -565h123v-97h-164l-283 -686h484v-96h-627z" />
<glyph unicode="[" horiz-adv-x="503" d="M102 0v1444h320v-96h-225v-1252h225v-96h-320z" />
<glyph unicode="]" horiz-adv-x="503" d="M82 0v96h225v1252h-225v96h319v-1444h-319z" />
<glyph unicode="&#xa9;" horiz-adv-x="798" d="M76 1032q0 23 2 54.5t8 68.5t17.5 75t31.5 73q43 74 110.5 113.5t155.5 39.5q158 0 246 -141q33 -53 51.5 -121t18.5 -139q0 -18 -2 -48t-8.5 -68t-18.5 -80t-31 -81q-41 -84 -107.5 -126t-148.5 -42q-86 0 -152.5 40t-109.5 112q-43 74 -53 150.5t-10 119.5zM158 1032 q0 -66 14 -125t39 -106q29 -51 80 -84t110 -33q63 0 108.5 39t72 96.5t39 122t12.5 113.5q0 47 -13.5 104.5t-42 106.5t-71.5 82.5t-105 33.5q-80 0 -128 -43t-73.5 -101t-33.5 -116.5t-8 -89.5zM225 1036q0 119 41 178q27 35 59.5 49.5t69.5 14.5q43 0 72 -14.5t46 -33 t26.5 -37.5t13.5 -30l-74 -28q-12 33 -29.5 49t-54.5 16q-41 1 -59 -26q-14 -23 -23.5 -57t-9.5 -81q0 -45 9.5 -78.5t23.5 -54.5q18 -31 59 -31q37 0 54.5 18.5t29.5 47.5l74 -25q-4 -12 -13.5 -31.5t-26.5 -40t-46 -34.5t-72 -14q-76 0 -129 63q-41 66 -41 180z" />
<glyph unicode="&#xad;" d="M217 782v99h555v-99h-555z" />
<glyph unicode="&#xc4;" horiz-adv-x="958" d="M43 0h94l129 518h420l125 -518h98l-366 1434h-135zM190 1534v160h142v-160h-142zM291 612l184 701l187 -701h-371zM627 1534v160h141v-160h-141z" />
<glyph unicode="&#xd6;" horiz-adv-x="962" d="M39 731q0 168 30.5 302t89 228.5t141.5 144.5t187 50q102 0 182.5 -50t135.5 -144.5t85 -228.5t30 -302q0 -160 -27 -291t-82 -229q-59 -109 -139 -166t-189 -57t-194.5 57t-145.5 166q-51 98 -77.5 229t-26.5 291zM133 731q0 -147 24.5 -268t71.5 -209q92 -172 254 -172 q80 0 143.5 46t108.5 131t68.5 205t23.5 267q0 115 -17 227.5t-57 201.5t-105 144.5t-161 55.5q-98 0 -165.5 -55.5t-109.5 -144.5t-60.5 -201.5t-18.5 -227.5zM203 1534v160h141v-160h-141zM639 1534v160h141v-160h-141z" />
<glyph unicode="&#xdc;" horiz-adv-x="962" d="M104 522q2 -121 19.5 -219t58.5 -167.5t113 -108.5t184 -39h4h2q113 0 184.5 39t113.5 108.5t58.5 167.5t18.5 219v924h-94v-909q0 -78 -7 -159t-36 -146.5t-84 -106.5t-154 -41h-2h-4q-96 0 -152.5 41t-84 106.5t-34.5 146.5t-7 159v909h-97v-924zM193 1534v160h141 v-160h-141zM629 1534v160h141v-160h-141z" />
<glyph unicode="&#x2000;" horiz-adv-x="847" />
<glyph unicode="&#x2001;" horiz-adv-x="1694" />
<glyph unicode="&#x2002;" horiz-adv-x="847" />
<glyph unicode="&#x2003;" horiz-adv-x="1694" />
<glyph unicode="&#x2004;" horiz-adv-x="564" />
<glyph unicode="&#x2005;" horiz-adv-x="423" />
<glyph unicode="&#x2006;" horiz-adv-x="282" />
<glyph unicode="&#x2007;" horiz-adv-x="282" />
<glyph unicode="&#x2008;" horiz-adv-x="211" />
<glyph unicode="&#x2009;" horiz-adv-x="338" />
<glyph unicode="&#x200a;" horiz-adv-x="94" />
<glyph unicode="&#x2010;" d="M217 782v99h555v-99h-555z" />
<glyph unicode="&#x2011;" d="M217 782v99h555v-99h-555z" />
<glyph unicode="&#x2012;" d="M217 782v99h555v-99h-555z" />
<glyph unicode="&#x2013;" horiz-adv-x="1116" d="M217 782v99h698v-99h-698z" />
<glyph unicode="&#x2014;" horiz-adv-x="2486" d="M217 782v99h2048v-99h-2048z" />
<glyph unicode="&#x202f;" horiz-adv-x="338" />
<glyph unicode="&#x205f;" horiz-adv-x="423" />
<glyph unicode="&#x20ac;" horiz-adv-x="978" d="M45 860l154 10q29 283 134 434.5t279 151.5q74 0 125 -12t86 -33.5t55.5 -50.5t30.5 -62l-90 -26q-4 10 -11 25.5t-28.5 28.5t-60.5 23.5t-107 10.5q-129 0 -212 -125t-101 -358l485 30l11 -90l-504 -35v-123l510 33l10 -94l-512 -35q18 -225 98 -353t219 -128 q66 0 105 9t59.5 23.5t27.5 29t11 26.5l90 -31q-10 -31 -31.5 -59.5t-56.5 -49t-85 -32.5t-120 -12q-172 0 -282.5 147.5t-130.5 423.5l-131 -6l-11 92l136 10v121l-142 -8z" />
<glyph unicode="&#x25fc;" horiz-adv-x="1024" d="M0 0z" />
</font>
</defs>
</svg>
